<?xml version="1.0" encoding="utf-8"?>
<!-- Generator: Adobe Illustrator 26.5.2, SVG Export Plug-In . SVG Version: 6.00 Build 0)  -->
<svg version="1.1" id="レイヤー_1" xmlns="http://www.w3.org/2000/svg" xmlns:xlink="http://www.w3.org/1999/xlink" x="0px"
	 y="0px" viewBox="0 0 100 21" style="enable-background:new 0 0 100 21;" xml:space="preserve">
<style type="text/css">
	.st0{fill:#252229;}
	.st1{fill:#686868;}
</style>
<g>
	<g>
		<path class="st0" d="M39.33,11.496c0.058-0.103,0.159-0.259,0.404-0.29c0.047,0.541,0.437,1.472,0.596,1.614
			c0.213,0.19,0.556,0.313,0.694,0.186c0.138-0.128,0.352,0.128,0.511,0.492c0.159,0.364,0.103,0.311-0.231,0.318
			c-0.334,0.006-0.866-0.386-1.205-0.707c-0.203-0.193-0.459-0.504-0.651-0.776C39.359,11.977,39.278,11.589,39.33,11.496z"/>
		<path class="st0" d="M40.712,10.17c-0.477,0.289-1.143,0.295-1.587,0.282c-0.044-0.001-0.079-0.039-0.076-0.083
			c0.005-0.11,0.013-0.207,0.024-0.281c0.06-0.423,0.447-0.763,0.758-0.436c0.145,0.152,0.53,0.265,0.901,0.342
			c0.065,0.013,0.087,0.097,0.035,0.138C40.75,10.145,40.732,10.158,40.712,10.17z"/>
		<path class="st0" d="M49.938,11.468c0.809-0.148,1.729-0.379,1.826-0.38c0.142-0.001,0.112,0.609,0.286,1.203
			c0.174,0.594,0.645,1.61,0.911,1.668c0.179,0.039,0.334,0.038,0.416,0.034c0.039-0.002,0.076,0.018,0.096,0.052
			c0.101,0.174,0.39,0.69,0.329,0.777c-0.074,0.105-0.245,0.168-0.458,0.054c-0.213-0.114-0.718-0.257-1.041-0.695
			c-0.109-0.148-0.237-0.382-0.359-0.635c-0.032-0.067-0.065-0.135-0.096-0.203c-0.003-0.008-0.005-0.016-0.008-0.024
			c-0.116-0.548-0.041-1.506-0.156-1.906c-0.034-0.12-0.085-0.19-0.164-0.183c-0.339,0.029-1.169,0.189-1.528,0.289
			c-0.019,0.005-0.035,0.006-0.05,0.003C49.94,11.505,49.939,11.487,49.938,11.468z"/>
		<path class="st0" d="M49.883,11.478c0.019-0.003,0.037-0.007,0.056-0.01c0,0.019,0.001,0.037,0.003,0.054
			C49.916,11.518,49.897,11.502,49.883,11.478z"/>
		<path class="st0" d="M50.346,7.142c-0.044,0.256-0.37,1.242-0.713,1.425s-0.644-0.037-1.288,0.05
			c-0.644,0.087-1.876,0.19-2.366,0.153c-0.491-0.037-1.071-0.359-1.428-0.384c-0.356-0.025-0.943-0.28-0.938-1.552
			s0.03-1.256,0.239-1.393c0.208-0.137,0.692-0.778,0.719-0.938c0.028-0.16-0.337,0.058-0.627,0.127
			c-0.29,0.069-0.634,0.005-0.689-0.012c-0.055-0.016-0.158-0.357-0.047-0.412s1.612-0.164,2.112-0.457s1.434-0.852,1.381-2.183
			c-0.053-1.331-0.173,0.377-0.4,0.592c-0.227,0.214-0.513-0.375-0.637-0.345c-0.124,0.03,0.37,1.051,0.11,1.201
			s-0.584-0.245-0.668-0.553c-0.084-0.309-0.354,0.216-0.145,0.495c0.209,0.279,0.306,0.596-0.428,0.595s-0.81,0.094-0.926-0.207
			c-0.115-0.301-0.018-0.631-0.098-0.689s-0.371,0.143-0.372,0.417s0.275,0.603-0.038,0.623s-0.722-0.135-0.495-0.518
			S43.21,2.187,43.626,2c0.416-0.186,1.389-0.669,1.534-0.981c0.145-0.312,0.134-0.85-0.034-0.941
			c-0.168-0.092,0.098,0.32-0.065,0.497S44.67,0.923,44.534,0.81c-0.137-0.114-0.538-0.449-0.552-0.57s-0.22-0.189-0.114,0.195
			c0.106,0.384,0.226,0.706,0.13,0.794c-0.096,0.088-0.363-0.023-0.424-0.184s-0.156,0.052-0.11,0.274s0.012,0.45-0.193,0.323
			s-0.476-0.836-0.438-0.955c0.038-0.118-0.103-0.158-0.197-0.063s-0.089,0.978,0.053,1.178c0.142,0.2,0.244,0.227,0.13,0.334
			c-0.113,0.107-0.435-0.203-0.516-0.235c-0.081-0.032,0.001,0.343,0.073,0.552c0.072,0.209-0.005,0.439-0.237,0.356
			c-0.232-0.084-0.369-0.263-0.479-0.266c-0.11-0.003-0.031,0.175,0.195,0.45c0.226,0.275,0.565,0.936,0.341,1.098
			c-0.224,0.163-0.687,0.152-0.856,0.499s-0.143,0.505-0.428,0.737c-0.285,0.232-0.612,0.375-0.86,0.39
			c-0.248,0.015-0.112,0.498,0.185,0.548s0.785,0.263,1.2,0.164c0.415-0.098,0.569-0.004,0.524,0.084
			c-0.045,0.087-0.489,0.675-0.626,0.872c-0.229,0.328-0.471,0.896-0.555,1.414c-0.149,0.912,0.406,1.218-0.012,1.472
			c-0.701,0.425-1.815,0.233-2.012,0.28c-0.197,0.047,0.191,2.003,0.285,2.353s0.87,1.404,1.261,1.574
			c0.391,0.17,0.425,0.315,0.581,0.278c0.156-0.037,0.017-0.574-0.048-0.712c-0.066-0.138-0.293,0.059-0.516-0.097
			c-0.223-0.155-0.718-0.903-0.768-1.066c-0.05-0.163-0.38-1.279-0.288-1.443c0.092-0.164,0.295-0.464,1.023-0.166
			c0.728,0.298,0.564,0.622,1.159,0.546c0.595-0.076,1.171-0.234,1.474-0.065c0.303,0.169,1.171,1.058,2.105,0.837
			c0.933-0.222,2.05-0.684,2.344-0.556c0.293,0.128,0.783,0.712,1.191,0.681c0.409-0.031,2.291-0.5,2.464-0.234
			c0.173,0.266,0.453,1.678,0.551,1.951c0.098,0.273,0.973,1.467,1.177,1.495c0.204,0.028,0.321,0.154,0.311-0.074
			c-0.01-0.228-0.019-0.817-0.041-0.91c-0.022-0.093-0.207,0.005-0.465-0.065c-0.258-0.07-0.642-0.768-0.789-1.478
			c-0.147-0.71,0.021-2.094-0.315-2.065c-0.336,0.029-1.16,0.188-1.517,0.287s0.067-1.257,0.103-1.719
			c0.017-0.219-0.015-0.399-0.055-0.529c-0.04-0.131,0.019-0.271,0.141-0.333c0.146-0.075,0.318-0.177,0.376-0.27
			c0.336-0.54,0.236-1.19,0.109-1.494C50.42,6.826,50.383,6.929,50.346,7.142z"/>
	</g>
	<g>
		<path class="st0" d="M1.211,13.683c0.023-0.116,0.07-0.296,0.293-0.402c0.214,0.499,0.876,1.261,1.072,1.346
			c0.262,0.114,0.627,0.123,0.717-0.041c0.091-0.164,0.374,0.012,0.64,0.307c0.265,0.296,0.196,0.263-0.12,0.374
			c-0.316,0.111-0.943-0.095-1.366-0.294c-0.254-0.119-0.594-0.335-0.862-0.533C1.389,14.131,1.191,13.787,1.211,13.683z"/>
		<path class="st0" d="M2.108,11.99c-0.362,0.424-0.993,0.638-1.419,0.765c-0.042,0.013-0.087-0.012-0.099-0.055
			c-0.03-0.106-0.052-0.2-0.066-0.274c-0.075-0.421,0.185-0.865,0.584-0.651c0.185,0.099,0.586,0.086,0.963,0.043
			c0.066-0.007,0.113,0.065,0.076,0.12C2.137,11.955,2.123,11.972,2.108,11.99z"/>
		<path class="st0" d="M11.277,10.332c0.722-0.394,1.524-0.902,1.615-0.933c0.135-0.045,0.297,0.543,0.648,1.053
			s1.117,1.327,1.388,1.299c0.182-0.019,0.329-0.068,0.405-0.098c0.037-0.014,0.078-0.007,0.107,0.019
			c0.15,0.133,0.587,0.533,0.556,0.635c-0.037,0.123-0.18,0.236-0.418,0.195s-0.762-0.019-1.207-0.334
			c-0.15-0.107-0.344-0.289-0.54-0.49c-0.052-0.053-0.104-0.108-0.155-0.163c-0.005-0.007-0.01-0.013-0.015-0.02
			c-0.282-0.484-0.511-1.418-0.745-1.761c-0.07-0.103-0.14-0.154-0.213-0.123c-0.313,0.134-1.051,0.546-1.36,0.753
			c-0.016,0.011-0.032,0.016-0.047,0.019C11.29,10.367,11.283,10.35,11.277,10.332z"/>
		<path class="st0" d="M11.227,10.359c0.017-0.009,0.033-0.018,0.05-0.027c0.006,0.018,0.013,0.035,0.02,0.051
			C11.271,10.386,11.248,10.378,11.227,10.359z"/>
		<path class="st0" d="M10.308,6.096c0.038,0.257,0.038,1.295-0.231,1.577S9.454,7.84,8.87,8.125
			C8.286,8.409,7.148,8.892,6.67,9.011s-1.13-0.005-1.476,0.083c-0.346,0.088-0.983,0.029-1.377-1.18s-0.365-1.202-0.21-1.398
			C3.763,6.32,4.021,5.561,3.997,5.4C3.973,5.24,3.696,5.561,3.441,5.717C3.187,5.874,2.84,5.92,2.783,5.922
			c-0.057,0.002-0.262-0.29-0.174-0.377c0.088-0.088,1.479-0.66,1.862-1.096s1.095-1.258,0.627-2.505S5.052,2.356,4.904,2.631
			S4.3,2.435,4.191,2.502C4.082,2.569,4.872,3.385,4.671,3.608S4.04,3.559,3.864,3.292C3.687,3.025,3.595,3.608,3.88,3.807
			c0.286,0.2,0.477,0.47-0.221,0.699S2.92,4.849,2.716,4.599c-0.204-0.25-0.215-0.593-0.309-0.623
			c-0.094-0.03-0.308,0.252-0.223,0.513c0.085,0.26,0.45,0.487,0.159,0.603C2.052,5.208,1.615,5.19,1.71,4.755
			c0.096-0.434,0.269-1.129,0.605-1.436s1.11-1.071,1.15-1.413c0.04-0.342-0.139-0.849-0.327-0.883
			C2.95,0.988,3.331,1.296,3.233,1.515S2.97,1.969,2.805,1.904S2.153,1.646,2.102,1.535s-0.268-0.11-0.047,0.221
			s0.436,0.6,0.372,0.714c-0.063,0.114-0.352,0.092-0.46-0.042C1.86,2.294,1.835,2.526,1.949,2.723
			C2.062,2.92,2.101,3.146,1.866,3.091C1.632,3.035,1.152,2.446,1.151,2.321C1.149,2.197,1.003,2.203,0.944,2.324
			c-0.06,0.12,0.222,0.957,0.42,1.102c0.198,0.145,0.303,0.139,0.229,0.276C1.518,3.839,1.115,3.645,1.028,3.64
			C0.941,3.635,1.136,3.965,1.27,4.142s0.133,0.419-0.114,0.412S0.724,4.42,0.618,4.451C0.512,4.483,0.643,4.628,0.944,4.818
			s0.83,0.711,0.668,0.936s-0.605,0.36-0.657,0.742C0.903,6.879,0.977,7.021,0.78,7.331C0.582,7.64,0.316,7.879,0.085,7.971
			s0.05,0.508,0.347,0.462C0.73,8.388,1.26,8.436,1.623,8.213C1.986,7.99,2.162,8.031,2.147,8.128
			C2.132,8.226,1.895,8.923,1.826,9.152c-0.114,0.383-0.166,0.999-0.085,1.516c0.144,0.912,0.767,1.03,0.45,1.401
			c-0.533,0.624-1.65,0.79-1.823,0.896c-0.172,0.106,0.809,1.843,1.008,2.146s1.266,1.06,1.691,1.1s0.503,0.166,0.639,0.082
			c0.136-0.084-0.163-0.55-0.269-0.661c-0.105-0.11-0.26,0.147-0.52,0.07S1.952,15.07,1.853,14.93
			c-0.098-0.14-0.762-1.095-0.726-1.28c0.036-0.185,0.135-0.533,0.92-0.478c0.785,0.055,0.73,0.414,1.272,0.156
			s1.039-0.589,1.38-0.524s1.444,0.638,2.261,0.135s1.733-1.292,2.051-1.263c0.318,0.029,0.966,0.431,1.345,0.274
			c0.378-0.158,2.019-1.193,2.266-0.995c0.247,0.198,0.956,1.452,1.134,1.68c0.178,0.228,1.383,1.088,1.586,1.051
			c0.202-0.037,0.353,0.045,0.272-0.168s-0.274-0.77-0.324-0.852s-0.195,0.07-0.462,0.084c-0.267,0.014-0.851-0.528-1.212-1.156
			s-0.636-1.995-0.946-1.862c-0.31,0.133-1.043,0.542-1.35,0.748S10.99,9.264,10.88,8.815c-0.052-0.213-0.14-0.374-0.217-0.485
			c-0.079-0.112-0.067-0.264,0.029-0.361c0.116-0.117,0.246-0.267,0.272-0.374c0.15-0.618-0.149-1.204-0.364-1.453
			C10.279,5.773,10.276,5.882,10.308,6.096z"/>
	</g>
	<g>
		
			<ellipse transform="matrix(0.9197 -0.3926 0.3926 0.9197 6.1818 39.1041)" class="st0" cx="98.683" cy="4.44" rx="0.831" ry="0.689"/>
		<path class="st0" d="M99.931,20.898c0,0-2.853-2.429-7.913-3.454c-2.387-0.484-5.446-0.441-8.121-0.459
			c-1.678-0.011-3.812-0.345-4.635-1.215c-1.287-1.36-1.07-3.684-0.183-4.551s-1.221,0.092-1.633,1.807
			c-0.58,2.418,0.266,4.294,2.234,4.713c1.968,0.419,7.902,0.074,9.119,0.1c2.507,0.053,4.099,0.154,7.149,1.163
			C97.411,19.486,100.499,21.21,99.931,20.898z"/>
		<path class="st0" d="M83.581,8.392c0.303-0.377-0.813-0.456-1.275-1.032c-0.462-0.575-0.286-1.176,0.088-1.459
			c0.374-0.283,0.478,0.105,1.26,0.575c0.783,0.469,0.479-0.483,1.095-0.56c0.447-0.056,0.317,0.444,0.212,0.722
			c-0.021,0.056,0.027,0.111,0.085,0.101c0.157-0.028,0.427,0.033,0.794,0.504c0.615,0.788,1.085,0.587,1.618,0.103
			s0.585-0.524,0.32-1.154c-0.42-1.003-0.715-1.441-1.166-1.41c-0.289,0.019-0.773-0.38-0.77-0.807
			c0.003-0.427-1.324-1.631-0.514-2.553c1.092-1.243,1.606,0.817,1.817,0.591c0.446-0.476,0.657-0.394,0.727-0.237
			c0.236,0.529-0.087,1.068,0.388,0.803c0.474-0.264,0.366,0.458,0.056,0.981c-0.339,0.571,1.786,2.174,1.825,1.994
			c0.039-0.179-0.091-0.865,0.578-1.36s0.381-0.302,0.2-0.618c-0.182-0.317-0.25-1.075,0.293-1.377s2.754,0.099,3.185,0.402
			c0.431,0.303,0.371,0.815,0.494,1.157c0.123,0.342,2.189,0.657,2.732,0.626c0.03-0.002,0.059-0.003,0.088-0.004
			c0.046-0.002,0.083,0.038,0.078,0.083c-0.006,0.052-0.006,0.104,0.002,0.156c0.005,0.035-0.014,0.069-0.048,0.082
			c-0.415,0.153-0.975,0.295-1.445,0.18c-0.828-0.203-1.945,0.367-2.278,1.251c-0.157,0.416-0.065,1.062,0.049,1.701
			c0.008,0.043-0.022,0.083-0.065,0.088c-1.721,0.212-2.883,0.857-3.877,1.62c-1.113,0.854-3.058,1.779-4.578,1.608
			c-1.088-0.123-2.327-1.152-3.328-1.782c-0.041-0.026-0.047-0.082-0.014-0.117C82.537,8.903,83.355,8.673,83.581,8.392z"/>
		<path class="st0" d="M96.715,10.201c0,0-0.497,0.954,0.414,0.951c0.982-0.003,0.915-0.667,0.646-1.219
			c-0.501-1.03-1.552-2.027-3.08-1.93c-2.084,0.132-3.412,0.839-4.533,1.688c-1.121,0.849-3.074,1.776-4.593,1.621
			s-3.315-2.046-4.363-2.186c-1.049-0.14-1.885,0.434-1.345,0.759c0.541,0.325,0.932-0.413,1.539,0.22
			c0.295,0.308,0.553,1.364,0.116,1.793c-1.181,1.161-0.732,1.83,0.058,2.2c4.292,2.015,10.405,2.527,12.486,1.901
			c0.98-0.295,1.978-0.288,1.695-3.196s-0.387-3.586,0.026-3.623C96.195,9.145,97.011,9.356,96.715,10.201z"/>
	</g>
	<path class="st0" d="M84.706,2.52c-1.679,0.852-3.441,1.52-5.238,2.061c-0.9,0.268-1.807,0.509-2.722,0.717
		c-0.915,0.21-1.835,0.394-2.761,0.549c-0.925,0.159-1.855,0.29-2.787,0.397c-0.932,0.11-1.868,0.19-2.805,0.251
		c-1.875,0.115-3.756,0.135-5.635,0.016c0.935,0.114,1.876,0.174,2.818,0.202c0.236,0.009,0.471,0.009,0.707,0.013
		c0.236,0.005,0.471,0.001,0.707,0.001c0.471-0.003,0.943-0.018,1.414-0.037c0.236-0.008,0.471-0.024,0.706-0.035
		c0.118-0.005,0.235-0.015,0.353-0.023l0.353-0.025c0.47-0.036,0.94-0.078,1.409-0.127c0.938-0.101,1.873-0.23,2.803-0.386
		c0.93-0.161,1.855-0.346,2.773-0.566c0.917-0.222,1.828-0.47,2.726-0.761c0.898-0.288,1.785-0.615,2.652-0.986
		C83.043,3.407,83.892,2.994,84.706,2.52z"/>
	<path class="st0" d="M79.433,9.789c-0.773,0.207-1.562,0.337-2.355,0.431c-0.198,0.024-0.397,0.043-0.595,0.064
		c-0.199,0.019-0.398,0.034-0.596,0.051l-0.597,0.041c-0.199,0.012-0.398,0.021-0.598,0.032c-0.797,0.034-1.595,0.052-2.393,0.048
		c-0.798-0.002-1.596-0.018-2.394-0.053c-0.798-0.031-1.594-0.082-2.39-0.146c-0.796-0.061-1.59-0.145-2.382-0.241
		c-0.198-0.026-0.396-0.05-0.594-0.078l-0.592-0.086c-0.197-0.032-0.394-0.061-0.591-0.095c-0.196-0.036-0.393-0.068-0.589-0.107
		c-0.784-0.148-1.563-0.33-2.325-0.573c0.744,0.296,1.52,0.511,2.3,0.693c0.782,0.179,1.572,0.322,2.365,0.439
		c0.198,0.031,0.397,0.056,0.595,0.084c0.199,0.028,0.398,0.049,0.597,0.074c0.199,0.025,0.398,0.045,0.598,0.066l0.299,0.031
		l0.299,0.028c0.799,0.072,1.599,0.124,2.4,0.16c0.801,0.03,1.603,0.046,2.405,0.039c0.802-0.009,1.604-0.033,2.404-0.09
		c0.8-0.054,1.599-0.137,2.392-0.261C77.886,10.213,78.675,10.049,79.433,9.789z"/>
	<path class="st0" d="M60.334,9.504c-0.773,0.207-1.562,0.337-2.355,0.431c-0.198,0.024-0.397,0.043-0.595,0.064
		c-0.199,0.019-0.398,0.034-0.596,0.051l-0.597,0.041c-0.199,0.012-0.398,0.021-0.598,0.032c-0.797,0.034-1.595,0.052-2.393,0.048
		c-0.798-0.002-1.596-0.018-2.394-0.053c-0.798-0.031-1.594-0.082-2.39-0.146c-0.796-0.061-1.59-0.145-2.382-0.241
		c-0.198-0.026-0.396-0.05-0.594-0.078l-0.592-0.086c-0.197-0.032-0.394-0.061-0.591-0.095c-0.196-0.036-0.393-0.068-0.589-0.107
		c-0.784-0.148-1.563-0.33-2.325-0.573c0.744,0.296,1.52,0.511,2.3,0.693c0.782,0.179,1.572,0.322,2.365,0.439
		c0.198,0.031,0.397,0.056,0.595,0.084c0.198,0.028,0.398,0.049,0.597,0.074c0.199,0.025,0.398,0.045,0.598,0.066l0.299,0.031
		l0.299,0.028c0.799,0.072,1.599,0.124,2.4,0.16c0.801,0.03,1.603,0.046,2.405,0.039c0.802-0.009,1.604-0.033,2.404-0.09
		c0.8-0.054,1.599-0.137,2.392-0.261C58.787,9.928,59.576,9.763,60.334,9.504z"/>
	<path class="st0" d="M41.449,9.361c-0.773,0.207-1.562,0.337-2.355,0.431c-0.198,0.024-0.397,0.043-0.595,0.064
		c-0.199,0.019-0.398,0.034-0.596,0.051l-0.597,0.041c-0.199,0.012-0.398,0.021-0.598,0.032c-0.797,0.034-1.595,0.052-2.393,0.048
		c-0.798-0.002-1.596-0.018-2.394-0.053c-0.798-0.031-1.594-0.082-2.39-0.146c-0.796-0.061-1.59-0.145-2.382-0.241
		c-0.198-0.026-0.396-0.05-0.594-0.078l-0.592-0.086c-0.197-0.032-0.394-0.061-0.591-0.095c-0.196-0.036-0.393-0.068-0.589-0.107
		c-0.784-0.148-1.563-0.33-2.325-0.573c0.744,0.296,1.52,0.511,2.3,0.693c0.782,0.179,1.572,0.322,2.365,0.439
		c0.198,0.031,0.397,0.056,0.595,0.084c0.198,0.028,0.398,0.049,0.597,0.074c0.199,0.025,0.398,0.045,0.598,0.066l0.299,0.031
		l0.299,0.028c0.799,0.072,1.599,0.124,2.4,0.16c0.801,0.03,1.603,0.046,2.405,0.039c0.802-0.009,1.604-0.033,2.404-0.09
		c0.8-0.054,1.599-0.137,2.392-0.261C39.902,9.785,40.691,9.621,41.449,9.361z"/>
	<path class="st0" d="M22.564,9.219c-0.773,0.207-1.562,0.337-2.355,0.431c-0.198,0.024-0.397,0.043-0.595,0.064
		c-0.199,0.019-0.398,0.034-0.596,0.051l-0.597,0.041c-0.199,0.012-0.398,0.021-0.598,0.032c-0.797,0.034-1.595,0.052-2.393,0.048
		c-0.798-0.002-1.596-0.018-2.394-0.053c-0.798-0.031-1.594-0.082-2.39-0.146c-0.796-0.061-1.59-0.145-2.382-0.241
		c-0.198-0.026-0.396-0.05-0.594-0.078L7.078,9.281C6.881,9.249,6.684,9.22,6.487,9.186C6.291,9.15,6.094,9.118,5.898,9.08
		C5.114,8.931,4.335,8.75,3.573,8.506c0.744,0.296,1.52,0.511,2.3,0.693c0.782,0.179,1.572,0.322,2.365,0.439
		c0.198,0.031,0.397,0.056,0.595,0.084C9.032,9.751,9.231,9.772,9.43,9.797c0.199,0.025,0.398,0.045,0.598,0.066l0.299,0.031
		l0.299,0.028c0.799,0.072,1.599,0.124,2.4,0.16c0.801,0.03,1.603,0.046,2.405,0.039c0.802-0.009,1.604-0.033,2.404-0.09
		c0.8-0.054,1.599-0.137,2.392-0.261C21.018,9.643,21.807,9.478,22.564,9.219z"/>
	<path class="st0" d="M80.858,10.038c-0.798,0.214-1.611,0.358-2.428,0.47l-0.613,0.078l-0.615,0.067l-0.616,0.058L75.97,10.76
		c-0.822,0.058-1.646,0.103-2.47,0.127c-0.824,0.026-1.648,0.039-2.473,0.034c-0.824-0.003-1.649-0.023-2.472-0.058
		c-0.824-0.032-1.646-0.087-2.467-0.157l-0.615-0.059l-0.614-0.068l-0.613-0.078c-0.204-0.031-0.408-0.06-0.611-0.092
		c-0.813-0.13-1.622-0.298-2.41-0.549c0.77,0.303,1.577,0.505,2.388,0.669c0.813,0.161,1.633,0.279,2.456,0.37
		c0.206,0.023,0.412,0.043,0.618,0.064c0.206,0.021,0.412,0.035,0.619,0.053c0.206,0.018,0.413,0.03,0.619,0.045
		c0.206,0.015,0.413,0.026,0.62,0.037c0.827,0.043,1.654,0.065,2.482,0.071c0.828,0.001,1.655-0.013,2.483-0.048
		c0.827-0.037,1.653-0.088,2.477-0.169c0.824-0.078,1.646-0.183,2.462-0.325C79.263,10.483,80.075,10.306,80.858,10.038z"/>
	<path class="st0" d="M61.118,10.288c-0.773,0.207-1.562,0.337-2.355,0.431c-0.198,0.024-0.397,0.043-0.595,0.064
		c-0.199,0.019-0.398,0.034-0.596,0.051l-0.597,0.041c-0.199,0.012-0.398,0.021-0.598,0.032c-0.797,0.034-1.595,0.052-2.393,0.048
		c-0.798-0.002-1.596-0.018-2.394-0.053c-0.798-0.031-1.594-0.082-2.39-0.146c-0.796-0.061-1.59-0.145-2.382-0.241
		c-0.198-0.026-0.396-0.05-0.594-0.078l-0.592-0.086c-0.197-0.032-0.394-0.061-0.591-0.095c-0.196-0.036-0.393-0.068-0.589-0.107
		c-0.784-0.148-1.563-0.33-2.325-0.573c0.744,0.296,1.52,0.511,2.3,0.693c0.782,0.179,1.572,0.322,2.365,0.439
		c0.198,0.031,0.397,0.056,0.595,0.084c0.199,0.028,0.398,0.049,0.597,0.074c0.199,0.025,0.398,0.045,0.598,0.066l0.299,0.031
		l0.299,0.028c0.799,0.072,1.599,0.124,2.4,0.16c0.801,0.03,1.603,0.046,2.405,0.039c0.802-0.009,1.604-0.033,2.404-0.09
		c0.8-0.054,1.599-0.137,2.392-0.261C59.571,10.712,60.36,10.547,61.118,10.288z"/>
	<path class="st0" d="M42.233,10.145c-0.773,0.207-1.562,0.337-2.355,0.431c-0.198,0.024-0.397,0.043-0.595,0.064
		c-0.199,0.019-0.398,0.034-0.596,0.051l-0.597,0.041c-0.199,0.012-0.398,0.021-0.598,0.032c-0.797,0.034-1.595,0.052-2.393,0.048
		c-0.798-0.002-1.596-0.018-2.394-0.053c-0.798-0.031-1.594-0.082-2.39-0.146c-0.796-0.061-1.59-0.145-2.382-0.241
		c-0.198-0.026-0.396-0.05-0.594-0.078l-0.592-0.086c-0.197-0.032-0.394-0.061-0.591-0.095c-0.196-0.036-0.393-0.068-0.589-0.107
		c-0.784-0.148-1.563-0.33-2.325-0.573c0.744,0.296,1.52,0.511,2.3,0.693c0.782,0.179,1.572,0.322,2.365,0.439
		c0.198,0.031,0.397,0.056,0.595,0.084c0.198,0.028,0.398,0.049,0.597,0.074c0.199,0.025,0.398,0.045,0.598,0.066l0.299,0.031
		l0.299,0.028c0.799,0.072,1.599,0.124,2.4,0.16c0.801,0.03,1.603,0.046,2.405,0.039c0.802-0.009,1.604-0.033,2.404-0.09
		c0.8-0.054,1.599-0.137,2.392-0.261C40.686,10.569,41.475,10.405,42.233,10.145z"/>
	<path class="st0" d="M23.348,10.003c-0.773,0.207-1.562,0.337-2.355,0.431c-0.198,0.024-0.397,0.043-0.595,0.064
		c-0.199,0.019-0.398,0.034-0.596,0.051l-0.597,0.041c-0.199,0.012-0.398,0.021-0.598,0.032c-0.797,0.034-1.595,0.052-2.393,0.048
		c-0.798-0.002-1.596-0.018-2.394-0.053c-0.798-0.031-1.594-0.082-2.39-0.146c-0.796-0.061-1.59-0.145-2.382-0.241
		c-0.198-0.026-0.396-0.05-0.594-0.078l-0.592-0.086c-0.197-0.032-0.394-0.061-0.591-0.095C7.075,9.934,6.878,9.902,6.682,9.863
		C5.898,9.715,5.119,9.534,4.357,9.29c0.744,0.296,1.52,0.511,2.3,0.693c0.782,0.179,1.572,0.322,2.365,0.439
		c0.198,0.031,0.397,0.056,0.595,0.084c0.198,0.028,0.398,0.049,0.597,0.074c0.199,0.025,0.398,0.045,0.598,0.066l0.299,0.031
		l0.299,0.028c0.799,0.072,1.599,0.124,2.4,0.16c0.801,0.03,1.603,0.046,2.405,0.039c0.802-0.009,1.604-0.033,2.404-0.09
		c0.8-0.054,1.599-0.137,2.392-0.261C21.802,10.427,22.59,10.262,23.348,10.003z"/>
	<path class="st0" d="M58.541,6.463L58.318,6.53l-0.226,0.054c-0.151,0.031-0.303,0.062-0.455,0.084l-0.114,0.018L57.408,6.7
		c-0.077,0.01-0.153,0.021-0.23,0.029c-0.154,0.016-0.307,0.033-0.461,0.044c-0.307,0.028-0.616,0.044-0.924,0.057l-0.463,0.016
		l-0.463,0.009c-0.618,0.005-1.236,0.003-1.853-0.015c-0.618-0.015-1.235-0.039-1.853-0.074c-0.617-0.03-1.235-0.071-1.851-0.116
		c-0.617-0.042-1.233-0.098-1.85-0.151c-1.233-0.11-2.463-0.244-3.696-0.381c1.216,0.24,2.443,0.428,3.675,0.575
		c0.308,0.038,0.616,0.072,0.925,0.104l0.463,0.046l0.463,0.043c0.618,0.053,1.237,0.095,1.857,0.13
		c0.62,0.03,1.24,0.053,1.861,0.061c0.621,0.005,1.242,0.002,1.863-0.026c0.621-0.025,1.241-0.073,1.858-0.155
		c0.308-0.042,0.615-0.092,0.919-0.16c0.152-0.033,0.302-0.073,0.452-0.115l0.222-0.072L58.541,6.463z"/>
	<path class="st0" d="M39.776,5.903c-1.175,0.248-2.349,0.492-3.531,0.68c-0.147,0.026-0.296,0.045-0.444,0.066l-0.444,0.065
		c-0.148,0.02-0.297,0.037-0.445,0.056c-0.148,0.018-0.296,0.038-0.445,0.053l-0.446,0.045c-0.149,0.015-0.297,0.033-0.446,0.043
		l-0.447,0.035c-0.149,0.012-0.298,0.025-0.447,0.031l-0.448,0.026c-0.149,0.009-0.298,0.019-0.448,0.022l-0.448,0.015
		c-0.149,0.004-0.299,0.012-0.448,0.013l-0.897,0.013c-0.299-0.003-0.599-0.004-0.898-0.005c-1.198-0.017-2.395-0.07-3.595-0.123
		c1.191,0.157,2.388,0.264,3.59,0.318c0.3,0.011,0.601,0.021,0.902,0.029l0.902,0.005l0.113,0.001l0.113-0.003l0.226-0.006
		l0.451-0.012c0.15-0.002,0.301-0.012,0.451-0.019l0.451-0.024c0.15-0.007,0.3-0.021,0.45-0.034l0.45-0.038
		c0.15-0.011,0.3-0.031,0.449-0.046l0.449-0.051c0.149-0.018,0.298-0.042,0.447-0.062c0.149-0.022,0.298-0.042,0.447-0.065
		c0.297-0.051,0.594-0.097,0.889-0.156C37.46,6.548,38.626,6.25,39.776,5.903z"/>
	<path class="st0" d="M21.461,6.081c-1.432,0.311-2.864,0.608-4.309,0.832c-0.722,0.109-1.445,0.216-2.171,0.295l-0.544,0.061
		c-0.181,0.023-0.363,0.036-0.545,0.053c-0.364,0.033-0.727,0.07-1.091,0.09c-0.728,0.058-1.458,0.091-2.187,0.116
		c-0.365,0.009-0.73,0.021-1.095,0.027c-0.365,0-0.731,0.001-1.096,0.004C6.96,7.549,5.499,7.486,4.036,7.402
		c1.453,0.188,2.916,0.305,4.382,0.352c0.367,0.008,0.733,0.015,1.1,0.02c0.367,0,0.734-0.007,1.101-0.01
		c0.092-0.001,0.184-0.001,0.275-0.005l0.275-0.011l0.55-0.023l0.275-0.011c0.092-0.003,0.183-0.011,0.275-0.017l0.549-0.037
		c0.366-0.022,0.731-0.062,1.097-0.096c0.366-0.032,0.73-0.078,1.094-0.123c0.365-0.042,0.727-0.101,1.09-0.154l0.272-0.041
		l0.271-0.047l0.542-0.096c0.181-0.03,0.36-0.069,0.54-0.104c0.18-0.036,0.36-0.071,0.539-0.108l0.537-0.12
		c0.179-0.04,0.358-0.079,0.536-0.124l0.534-0.132c0.178-0.044,0.355-0.092,0.532-0.139C20.758,6.285,21.109,6.182,21.461,6.081z"/>
	<g>
		<path class="st1" d="M58.179,12.083c0.058-0.103,0.158-0.26,0.404-0.291c0.048,0.541,0.441,1.47,0.601,1.612
			c0.214,0.19,0.557,0.312,0.695,0.184c0.137-0.128,0.352,0.127,0.513,0.491c0.16,0.363,0.104,0.311-0.23,0.318
			c-0.334,0.007-0.867-0.383-1.207-0.704c-0.204-0.192-0.46-0.503-0.653-0.774C58.208,12.564,58.127,12.175,58.179,12.083z"/>
		<path class="st1" d="M59.556,10.753c-0.476,0.291-1.143,0.298-1.586,0.287c-0.044-0.001-0.079-0.038-0.077-0.083
			c0.005-0.11,0.012-0.207,0.023-0.281c0.059-0.423,0.445-0.765,0.757-0.438c0.145,0.152,0.531,0.264,0.902,0.34
			c0.065,0.013,0.087,0.096,0.035,0.138C59.595,10.728,59.577,10.74,59.556,10.753z"/>
		<path class="st1" d="M68.787,12.023c0.809-0.15,1.728-0.384,1.825-0.385c0.142-0.001,0.113,0.609,0.289,1.202
			s0.65,1.609,0.916,1.665c0.179,0.038,0.334,0.037,0.416,0.033c0.039-0.002,0.076,0.018,0.096,0.052
			c0.101,0.173,0.392,0.689,0.331,0.776c-0.073,0.105-0.245,0.168-0.458,0.055c-0.214-0.113-0.719-0.255-1.043-0.692
			c-0.11-0.148-0.238-0.381-0.361-0.634c-0.033-0.067-0.065-0.135-0.097-0.203c-0.003-0.008-0.005-0.016-0.008-0.024
			c-0.118-0.548-0.046-1.506-0.161-1.906c-0.035-0.12-0.086-0.19-0.164-0.183c-0.339,0.03-1.168,0.193-1.527,0.294
			c-0.019,0.005-0.035,0.006-0.05,0.003C68.788,12.061,68.787,12.043,68.787,12.023z"/>
		<path class="st1" d="M68.731,12.034c0.019-0.003,0.037-0.007,0.056-0.01c0,0.019,0.001,0.037,0.003,0.054
			C68.765,12.073,68.745,12.058,68.731,12.034z"/>
		<path class="st1" d="M69.181,7.696c-0.044,0.256-0.366,1.243-0.709,1.428c-0.343,0.185-0.644-0.035-1.288,0.054
			c-0.644,0.089-1.875,0.195-2.366,0.16c-0.491-0.035-1.072-0.356-1.429-0.38s-0.944-0.277-0.943-1.549s0.027-1.256,0.235-1.394
			c0.208-0.138,0.689-0.78,0.717-0.94c0.027-0.16-0.337,0.059-0.627,0.129c-0.29,0.07-0.634,0.006-0.689-0.01
			c-0.055-0.016-0.159-0.356-0.048-0.412s1.611-0.168,2.11-0.464s1.431-0.856,1.374-2.187c-0.057-1.331-0.172,0.378-0.398,0.593
			c-0.226,0.215-0.514-0.373-0.638-0.343s0.373,1.05,0.113,1.201c-0.26,0.15-0.585-0.243-0.67-0.551
			c-0.085-0.308-0.354,0.217-0.144,0.495c0.209,0.278,0.307,0.595-0.427,0.596c-0.734,0.001-0.81,0.096-0.926-0.205
			s-0.02-0.631-0.1-0.689c-0.08-0.058-0.371,0.144-0.371,0.418c0,0.274,0.276,0.602-0.037,0.623
			c-0.313,0.02-0.723-0.133-0.497-0.516c0.226-0.383,0.606-0.99,1.021-1.177c0.415-0.188,1.387-0.674,1.531-0.986
			c0.144-0.312,0.132-0.85-0.036-0.941s0.099,0.32-0.063,0.498s-0.391,0.35-0.528,0.237c-0.137-0.113-0.539-0.448-0.553-0.568
			s-0.221-0.188-0.114,0.195c0.107,0.384,0.228,0.705,0.133,0.794c-0.096,0.089-0.363-0.022-0.424-0.183s-0.156,0.052-0.109,0.275
			c0.046,0.223,0.013,0.45-0.192,0.324s-0.479-0.835-0.441-0.954c0.037-0.119-0.104-0.158-0.198-0.062
			c-0.094,0.096-0.086,0.978,0.057,1.178c0.143,0.199,0.244,0.226,0.131,0.334c-0.113,0.108-0.436-0.202-0.517-0.234
			c-0.081-0.032,0.002,0.343,0.074,0.552c0.072,0.209-0.004,0.439-0.236,0.356c-0.232-0.083-0.37-0.262-0.48-0.265
			c-0.11-0.003-0.031,0.176,0.196,0.45s0.568,0.934,0.344,1.097c-0.224,0.163-0.686,0.154-0.855,0.502
			c-0.169,0.347-0.142,0.505-0.425,0.738c-0.284,0.233-0.611,0.377-0.859,0.393c-0.248,0.016-0.11,0.498,0.186,0.547
			c0.297,0.049,0.786,0.26,1.201,0.161s0.569-0.005,0.524,0.082c-0.045,0.087-0.487,0.676-0.623,0.873
			c-0.228,0.329-0.468,0.898-0.551,1.415c-0.146,0.912,0.41,1.217-0.007,1.472c-0.7,0.427-1.814,0.238-2.011,0.286
			s0.197,2.003,0.292,2.352c0.095,0.35,0.874,1.401,1.266,1.57c0.391,0.169,0.426,0.314,0.582,0.277
			c0.155-0.037,0.015-0.574-0.051-0.711c-0.066-0.138-0.293,0.059-0.516-0.095s-0.721-0.901-0.771-1.064s-0.384-1.278-0.292-1.443
			c0.092-0.165,0.294-0.465,1.023-0.169c0.729,0.296,0.566,0.62,1.161,0.543s1.171-0.238,1.474-0.07
			c0.304,0.168,1.175,1.055,2.107,0.831s2.048-0.69,2.342-0.563c0.294,0.127,0.785,0.71,1.193,0.678
			c0.409-0.033,2.29-0.507,2.463-0.242c0.173,0.265,0.458,1.677,0.556,1.949c0.098,0.272,0.977,1.464,1.181,1.492
			c0.204,0.028,0.322,0.153,0.311-0.075c-0.011-0.228-0.021-0.817-0.044-0.91s-0.207,0.006-0.465-0.064s-0.645-0.766-0.793-1.475
			c-0.149-0.71,0.015-2.094-0.321-2.064s-1.16,0.191-1.516,0.292c-0.356,0.1,0.063-1.258,0.098-1.719
			c0.017-0.219-0.017-0.399-0.056-0.529c-0.04-0.131,0.018-0.271,0.14-0.334c0.146-0.075,0.317-0.178,0.375-0.271
			c0.334-0.541,0.233-1.191,0.105-1.494C69.254,7.38,69.218,7.483,69.181,7.696z"/>
	</g>
	<g>
		<path class="st1" d="M19.736,11.291c0.082-0.086,0.218-0.212,0.463-0.182c-0.088,0.536,0.062,1.534,0.181,1.711
			c0.16,0.237,0.462,0.44,0.627,0.35c0.165-0.09,0.31,0.211,0.375,0.603c0.065,0.392,0.024,0.327-0.302,0.251
			c-0.326-0.076-0.744-0.587-0.994-0.981c-0.15-0.237-0.321-0.602-0.441-0.912C19.645,11.764,19.663,11.367,19.736,11.291z"/>
		<path class="st1" d="M21.401,10.344c-0.533,0.163-1.181,0.005-1.608-0.116c-0.043-0.012-0.067-0.057-0.054-0.099
			c0.032-0.105,0.063-0.197,0.092-0.267c0.162-0.396,0.621-0.63,0.842-0.236c0.103,0.183,0.449,0.387,0.789,0.553
			c0.059,0.029,0.06,0.115,0,0.142C21.444,10.33,21.424,10.337,21.401,10.344z"/>
		<path class="st1" d="M30.026,13.868c0.821,0.056,1.77,0.057,1.864,0.08c0.138,0.034-0.041,0.618-0.019,1.236
			c0.023,0.619,0.23,1.72,0.473,1.841c0.164,0.081,0.314,0.119,0.395,0.135c0.039,0.008,0.069,0.036,0.08,0.074
			c0.055,0.193,0.209,0.765,0.128,0.834c-0.097,0.084-0.279,0.102-0.457-0.06s-0.633-0.425-0.839-0.929
			c-0.07-0.171-0.136-0.428-0.193-0.704c-0.015-0.073-0.029-0.147-0.043-0.22c-0.001-0.008-0.001-0.017-0.002-0.025
			c0.022-0.56,0.33-1.47,0.317-1.886c-0.004-0.125-0.036-0.205-0.114-0.218c-0.336-0.055-1.18-0.104-1.552-0.095
			c-0.02,0-0.036-0.003-0.05-0.009C30.019,13.904,30.022,13.886,30.026,13.868z"/>
		<path class="st1" d="M29.97,13.864c0.019,0.001,0.038,0.003,0.056,0.004c-0.004,0.019-0.008,0.036-0.011,0.053
			C29.993,13.911,29.978,13.891,29.97,13.864z"/>
		<path class="st1" d="M31.483,9.774c-0.106,0.237-0.663,1.113-1.041,1.207s-0.615-0.194-1.261-0.268s-1.865-0.277-2.331-0.433
			c-0.467-0.156-0.95-0.611-1.29-0.723c-0.339-0.112-0.845-0.503-0.528-1.735s0.338-1.21,0.574-1.292s0.862-0.584,0.928-0.732
			s-0.341-0.026-0.639-0.031c-0.298-0.004-0.616-0.151-0.665-0.181c-0.049-0.029-0.065-0.385,0.056-0.411s1.602,0.237,2.159,0.075
			C28,5.089,29.043,4.777,29.318,3.474c0.275-1.303-0.261,0.323-0.533,0.475c-0.272,0.152-0.405-0.489-0.533-0.491
			s0.101,1.11-0.188,1.191s-0.506-0.381-0.512-0.701S27.156,4.07,27.29,4.392s0.15,0.652-0.561,0.471s-0.809-0.108-0.846-0.428
			c-0.038-0.32,0.137-0.616,0.074-0.692c-0.063-0.076-0.395,0.047-0.463,0.313c-0.068,0.265,0.118,0.652-0.19,0.594
			c-0.308-0.058-0.667-0.308-0.353-0.624c0.314-0.315,0.833-0.808,1.282-0.887c0.449-0.079,1.511-0.308,1.728-0.575
			s0.339-0.791,0.199-0.921s0.016,0.334-0.185,0.466s-0.466,0.242-0.57,0.098c-0.104-0.144-0.411-0.568-0.395-0.688
			c0.016-0.121-0.167-0.237-0.159,0.161c0.008,0.398,0.046,0.74-0.069,0.802c-0.115,0.062-0.347-0.112-0.365-0.283
			c-0.019-0.171-0.164,0.012-0.174,0.239c-0.011,0.227-0.099,0.439-0.267,0.266s-0.256-0.928-0.191-1.033s-0.061-0.179-0.176-0.109
			c-0.115,0.069-0.327,0.926-0.238,1.155s0.181,0.28,0.044,0.356c-0.136,0.076-0.372-0.304-0.442-0.355
			c-0.07-0.051-0.083,0.333-0.065,0.553c0.018,0.221-0.113,0.425-0.317,0.287c-0.204-0.138-0.293-0.345-0.399-0.376
			c-0.106-0.03-0.073,0.162,0.078,0.484s0.318,1.046,0.061,1.149c-0.257,0.103-0.703-0.021-0.953,0.274
			c-0.25,0.295-0.263,0.454-0.595,0.609c-0.333,0.155-0.685,0.214-0.93,0.167c-0.244-0.046-0.231,0.455,0.045,0.576
			c0.275,0.121,0.697,0.447,1.123,0.454c0.426,0.006,0.552,0.136,0.487,0.21c-0.065,0.074-0.639,0.534-0.82,0.691
			c-0.302,0.262-0.677,0.753-0.885,1.234c-0.368,0.847,0.095,1.281-0.373,1.424c-0.784,0.24-1.816-0.22-2.019-0.223
			c-0.202-0.003-0.307,1.989-0.302,2.351s0.499,1.574,0.836,1.835c0.337,0.261,0.335,0.41,0.495,0.412
			c0.16,0.002,0.157-0.552,0.128-0.702s-0.298-0.015-0.476-0.22c-0.178-0.205-0.475-1.052-0.483-1.222
			c-0.008-0.171-0.055-1.333,0.075-1.47c0.13-0.137,0.4-0.378,1.033,0.09s0.394,0.741,0.99,0.814
			c0.596,0.073,1.193,0.061,1.445,0.299c0.252,0.238,0.876,1.314,1.835,1.328c0.959,0.014,2.156-0.16,2.409,0.036
			c0.253,0.196,0.584,0.883,0.988,0.953c0.404,0.07,2.344,0.078,2.446,0.378c0.102,0.3,0.027,1.738,0.055,2.026
			c0.028,0.288,0.583,1.661,0.773,1.738c0.191,0.077,0.274,0.228,0.32,0.005s0.182-0.797,0.184-0.893
			c0.001-0.096-0.202-0.046-0.434-0.177s-0.434-0.902-0.402-1.626c0.032-0.724,0.535-2.024,0.202-2.079s-1.171-0.103-1.541-0.094
			c-0.37,0.009,0.373-1.202,0.522-1.641c0.07-0.208,0.083-0.391,0.077-0.526c-0.006-0.136,0.085-0.258,0.218-0.289
			c0.16-0.036,0.351-0.093,0.43-0.169c0.458-0.441,0.521-1.095,0.473-1.421C31.633,9.486,31.572,9.576,31.483,9.774z"/>
	</g>
</g>
</svg>
