<?xml version="1.0" encoding="utf-8"?>
<!-- Generator: Adobe Illustrator 26.5.2, SVG Export Plug-In . SVG Version: 6.00 Build 0)  -->
<svg version="1.1" id="Banner" xmlns="http://www.w3.org/2000/svg" xmlns:xlink="http://www.w3.org/1999/xlink" x="0px" y="0px"
	 viewBox="0 0 150 150" style="enable-background:new 0 0 150 150;" xml:space="preserve">
<style type="text/css">
	.st0{fill:#232128;}
</style>
<g>
	<path class="st0" d="M46.1,97.8c-0.3,0-0.6-0.1-0.8-0.4c-1.2-1.6-2.3-3.3-3.4-4.9c-1.3-2-3-3.8-4.6-5.6c-1.1-1.2-2.1-2.3-3.1-3.6
		c-2.8-3.5-5.5-7.2-7.9-11.1c-2.8-4.4-5.3-9-7.4-13.6c-0.8-1.8-1.5-3.7-2.2-5.5c-1.1-2.9-2.2-5.8-3.7-8.3c-0.9-1.4-2-2.7-3.2-4.1
		c-1.2-1.3-2.4-2.7-3.4-4.3c-0.3,1.7,0.1,3.6,0.3,5.1c0.2,1,0.4,2,0.6,3c0.5,2.5,1.1,5.1,1.3,7.8c0.1,1.5,0.2,3.1,0.3,4.8
		c0.5,9.2,1,18.6,8.4,24.1c0.5,0.3,0.6,1,0.2,1.5c-0.3,0.5-1,0.6-1.5,0.2c-8.2-6-8.7-16.5-9.2-25.7c-0.1-1.6-0.2-3.2-0.3-4.7
		c-0.2-2.6-0.7-5-1.3-7.6c-0.2-1-0.4-2-0.6-3.1c-0.5-2.4-1.2-6.1,0.9-8.6c0.2-0.3,0.6-0.4,1-0.4c0.4,0.1,0.7,0.3,0.8,0.7
		c0,0.1,0.1,0.2,0.1,0.4c0.1,0.4,0.3,0.8,0.5,1.1c0.9,1.6,2.1,2.9,3.4,4.3c1.2,1.4,2.4,2.8,3.4,4.3c1.7,2.7,2.8,5.8,3.9,8.7
		c0.7,1.8,1.3,3.6,2.1,5.3c2.1,4.6,4.6,9.1,7.3,13.4c2.4,3.8,5,7.4,7.8,10.9c1,1.2,2,2.4,3.1,3.5c1.7,1.8,3.4,3.7,4.8,5.9
		c1,1.6,2.1,3.2,3.3,4.8c0.3,0.5,0.3,1.1-0.2,1.5C46.5,97.8,46.3,97.8,46.1,97.8z"/>
	<path class="st0" d="M148.9,150c-0.3,0-0.6-0.1-0.8-0.4c-14.4-20-38.2-30.7-60.6-27.4c-6.4,1-12.6,3.4-18.6,5.7
		c-4,1.6-8.2,3.2-12.4,4.4c-8.1,2.3-16.6,0.3-23.4-5.4c0,0,0,0-0.1-0.1c-5.2-5.2-8.8-11.2-11.7-19.5c-2.1-6.5-8.2-9.1-12.9-10.2
		c-1.2-0.2-2.5,0-3.8,0.1c-1.2,0.1-2.4,0.3-3.7,0.2c-0.4,0-0.8-0.3-0.9-0.7c-0.1-0.4,0-0.8,0.3-1.1c0.4-0.4,0.8-0.7,1.2-1
		c1.3-1,2.3-1.8,3-3.5c0.7-1.8,1.6-3.8,3.2-5.6c2.7-3,6.4-4.6,10.2-4.5c4.4,0.1,8,2.8,10.3,4.8c1,0.9,2,1.8,3,2.8
		c4.2,4.1,8.6,8.3,14.2,7.2c0.6-0.1,1.1,0.3,1.2,0.8c0.1,0.6-0.3,1.1-0.8,1.2c-6.7,1.2-11.6-3.5-16-7.7c-1-1-2-1.9-3-2.7
		c-3.3-2.8-6.2-4.2-9-4.3c-3.2-0.1-6.3,1.3-8.6,3.8c-1.2,1.4-2,2.9-2.8,5c-0.6,1.5-1.4,2.5-2.3,3.3c0.1,0,0.2,0,0.3,0
		c1.4-0.2,2.8-0.3,4.3-0.1c0,0,0.1,0,0.1,0c5.3,1.2,12,4.1,14.5,11.6c2.8,8,6.2,13.8,11.2,18.7c6.2,5.2,14,7,21.4,4.9
		c4.1-1.2,8.2-2.8,12.2-4.3c6.1-2.4,12.5-4.9,19.1-5.9c11.6-1.7,23.8,0.2,35.2,5.5c10.9,5.1,20.4,13,27.4,22.8
		c0.3,0.5,0.2,1.1-0.2,1.4C149.4,149.9,149.2,150,148.9,150z"/>
	<path class="st0" d="M65.6,117.6c-0.5,0-0.9-0.4-1-0.9c-0.1-0.6,0.3-1.1,0.8-1.2c5.9-1,9.6-3,11.4-5.9c-0.5-0.1-1.1-0.3-1.6-0.5
		c0,0-0.1,0-0.1,0c-1.4-0.8-2.2-2.2-2.2-3.5c0-1,0.5-1.7,1.4-2.1c1.2-0.6,2.5-0.5,3.5,0.3c1.2,0.9,2,2.6,1.9,4.1
		c1-0.1,1.9-0.3,2.6-0.5c12.3-4,17.3-22.3,17.7-33.6l0-0.9c0.1-3.7,0.2-7.4-0.9-10.8c-0.2-0.5-0.4-1-0.6-1.3c-2.4,3-5.9,6.7-8.4,6.3
		c-0.8-0.1-1.8-0.7-2.3-2.6c-0.2-1.1,0-2.2,0.8-3.5c1.6-2.6,4.7-4.2,7.5-3.8c0.8,0.1,1.5,0.3,2.1,0.7c0.6-0.8,1-1.4,1.1-1.6
		c2.2-3.7,3.6-7.9,4.8-11.9c4.4-14,5.5-26.4,3.3-36.8c-0.5-2.2-1.6-4.8-2.5-5.1c-0.1,0-0.2-0.1-0.6,0.2c-2.1,1.8-3.4,4.1-4.8,6.5
		c-0.4,0.7-0.8,1.5-1.3,2.2c-3.8,6.2-8.5,11.9-13.1,17.4c-2.9,3.6-6,7.2-8.7,11c-7.3,10-13,21.8-16.4,34.1c-0.4,1.3-0.7,2.8-1.1,4.3
		c-1.8,7.7-4.1,17.4-12.5,20c-0.5,0.2-1.1-0.1-1.3-0.7c-0.2-0.5,0.1-1.1,0.7-1.3c7.3-2.3,9.3-10.9,11.1-18.5c0.4-1.6,0.7-3,1.1-4.4
		c3.5-12.5,9.3-24.5,16.8-34.8c2.8-3.8,5.9-7.5,8.8-11.1c4.5-5.4,9.2-11.1,12.9-17.2c0.4-0.7,0.8-1.4,1.2-2.1
		c1.4-2.5,2.9-5.1,5.3-7.1c1-0.9,2-0.8,2.6-0.6c2.5,0.8,3.6,5.7,3.8,6.6c2.3,10.7,1.2,23.5-3.3,37.8c-1.3,4.1-2.8,8.5-5,12.3
		c0,0-0.5,0.8-1.3,1.9c0.6,0.7,1,1.5,1.3,2.4c1.2,3.7,1.1,7.7,1,11.5l0,0.9c-0.2,7-1.9,14.5-4.6,20.6c-3.5,7.8-8.5,13-14.5,15
		c-1.1,0.4-2.5,0.7-3.9,0.7c-1.8,4-6.2,6.6-13.2,7.8C65.7,117.6,65.6,117.6,65.6,117.6z M76.1,107.2c0.5,0.2,1,0.4,1.5,0.4
		c0,0,0,0,0-0.1c0.1-0.7-0.3-1.7-1-2.3c-0.4-0.3-0.9-0.3-1.4-0.1c0,0-0.2,0.1-0.2,0.3C75,106,75.3,106.7,76.1,107.2z M95.3,58.9
		c-1.9,0-3.8,1.1-4.9,2.9c-0.5,0.8-0.7,1.4-0.6,2c0.1,0.3,0.2,1,0.6,1c0.6,0.1,2.3-0.8,4.9-3.7c0.6-0.6,1.1-1.2,1.6-1.8
		c-0.4-0.1-0.7-0.2-1-0.3C95.7,58.9,95.5,58.9,95.3,58.9z"/>
</g>
</svg>
