<?xml version="1.0" encoding="utf-8"?>
<!-- Generator: Adobe Illustrator 26.5.2, SVG Export Plug-In . SVG Version: 6.00 Build 0)  -->
<svg version="1.1" id="レイヤー_1" xmlns="http://www.w3.org/2000/svg" xmlns:xlink="http://www.w3.org/1999/xlink" x="0px"
	 y="0px" viewBox="0 0 25 30" style="enable-background:new 0 0 25 30;" xml:space="preserve">
<style type="text/css">
	.st0{fill:url(#SVGID_1_);}
</style>
<g>
	<g>
		
			<linearGradient id="SVGID_1_" gradientUnits="userSpaceOnUse" x1="12.5" y1="32" x2="12.5" y2="2" gradientTransform="matrix(1 0 0 -1 0 32)">
			<stop  offset="0" style="stop-color:#9CFFAC"/>
			<stop  offset="1" style="stop-color:#00B59C"/>
		</linearGradient>
		<path class="st0" d="M15.734,14.054l-3.593,3.496c-0.173,0.173-0.4,0.259-0.626,0.259s-0.453-0.086-0.626-0.259l-1.807-1.695
			c-0.346-0.346-0.346-0.906,0-1.252c0.346-0.346,0.906-0.346,1.252,0l1.181,1.069l2.967-2.87c0.346-0.346,0.906-0.346,1.252,0
			C16.08,13.148,16.08,13.709,15.734,14.054L15.734,14.054z M23.127,4.818c-4.902,0-9.982-4.544-10.033-4.59
			c-0.337-0.304-0.851-0.304-1.188,0c-0.051,0.046-5.131,4.59-10.033,4.59c-0.489,0-0.886,0.396-0.886,0.886V16.25
			c0,8.346,5.984,11.701,11.197,13.692C12.286,29.981,12.393,30,12.5,30c0.107,0,0.214-0.019,0.316-0.058
			c5.213-1.991,11.197-5.345,11.197-13.692V5.703C24.013,5.214,23.617,4.818,23.127,4.818L23.127,4.818z M12.5,20.86
			c-3.201,0-5.806-2.605-5.806-5.806S9.299,9.248,12.5,9.248s5.806,2.605,5.806,5.806S15.701,20.86,12.5,20.86z"/>
	</g>
</g>
</svg>
