<?xml version="1.0" encoding="utf-8"?>
<!-- Generator: Adobe Illustrator 27.1.1, SVG Export Plug-In . SVG Version: 6.00 Build 0)  -->
<svg version="1.1" id="_x31_" xmlns="http://www.w3.org/2000/svg" xmlns:xlink="http://www.w3.org/1999/xlink" x="0px" y="0px"
	 viewBox="0 0 96 61.4" style="enable-background:new 0 0 96 61.4;" xml:space="preserve">
<style type="text/css">
	.st0{fill:#252229;}
	.st1{clip-path:url(#XMLID_00000082335686377214154330000004821126848454671799_);fill:#252229;}
	.st2{clip-path:url(#XMLID_00000082335686377214154330000004821126848454671799_);}
	.st3{opacity:0.3;}
	.st4{fill:#A3A3A3;}
</style>
<g>
	<g>
		<g>
			<g>
				<g>
					<g>
						<path class="st0" d="M24.316,19.245c-0.543,0.687-1.86,1.225-2.505,1.033c-1.967-0.585-0.753-2.679-2.04-2.928
							c-1.602-0.31-0.986-3.154,1.2-4.584L24.316,19.245z"/>
						<g>
							<path class="st0" d="M19.507,18.876c0.025-0.003,0.047-0.018,0.059-0.042c0.018-0.038,0.002-0.083-0.036-0.1
								c-0.546-0.258-0.957-0.84-1.074-1.517c-0.236-1.371,0.655-2.804,1.582-3.555c0.032-0.026,0.037-0.074,0.011-0.106
								c-0.026-0.032-0.074-0.037-0.106-0.011c-0.993,0.803-1.884,2.258-1.636,3.697c0.125,0.725,0.569,1.349,1.158,1.628
								C19.479,18.876,19.494,18.878,19.507,18.876z"/>
						</g>
						<g>
							<path class="st0" d="M21.942,20.537c0.042-0.005,0.085-0.012,0.128-0.02c0.041-0.008,0.068-0.047,0.06-0.088
								c-0.008-0.041-0.047-0.067-0.088-0.06c-0.789,0.149-1.47-0.249-1.618-0.948c-0.088-0.417-0.083-0.82-0.079-1.175
								c0.006-0.474,0.01-0.849-0.243-0.973c-0.037-0.018-0.082-0.003-0.101,0.034c-0.018,0.037-0.003,0.082,0.034,0.101
								c0.168,0.082,0.164,0.415,0.158,0.836c-0.004,0.345-0.01,0.775,0.082,1.208C20.434,20.196,21.124,20.638,21.942,20.537z"/>
						</g>
					</g>
					<g>
						<defs>
							<path id="XMLID_26_" d="M20.379,13.123c-0.55,2.219,0.707,3.772,1.343,5.22l0.213,0.995l0.675-0.224
								c0.8,0.955,2.321,2.011,2.822,1.95c0.501-0.061,3.513-2.021,3.641-4.672C29.2,13.741,20.93,10.904,20.379,13.123z"/>
						</defs>
						<use xlink:href="#XMLID_26_"  style="overflow:visible;fill:#252229;"/>
						<clipPath id="XMLID_00000039097718107434720700000018172165588235475386_">
							<use xlink:href="#XMLID_26_"  style="overflow:visible;"/>
						</clipPath>
						<path style="clip-path:url(#XMLID_00000039097718107434720700000018172165588235475386_);fill:#252229;" d="M11.471,16.045
							c0.564,4.591,4.743,7.857,9.334,7.293c4.592-0.564,7.857-4.743,7.293-9.334c-0.564-4.592-4.743-7.857-9.334-7.293
							C14.172,7.274,10.907,11.453,11.471,16.045z"/>
						<path style="clip-path:url(#XMLID_00000039097718107434720700000018172165588235475386_);fill:#252229;" d="M21.36,18.963
							c0.308,2.508,2.591,4.292,5.099,3.984c2.508-0.308,4.292-2.591,3.984-5.1c-0.308-2.508-2.591-4.292-5.099-3.984
							C22.835,14.171,21.052,16.454,21.36,18.963z"/>
						<g style="clip-path:url(#XMLID_00000039097718107434720700000018172165588235475386_);">
							<path class="st0" d="M23.902,20.417c0.017-0.002,0.034-0.008,0.049-0.017c0.494-0.296,0.882-0.683,1.152-1.151
								c0.035-0.06,0.014-0.137-0.046-0.171c-0.06-0.035-0.137-0.014-0.171,0.046c-0.248,0.431-0.606,0.788-1.063,1.061
								c-0.06,0.036-0.079,0.113-0.043,0.172C23.805,20.401,23.854,20.423,23.902,20.417z"/>
						</g>
					</g>
					<g>
						<path class="st0" d="M20.484,12.132l10.02,4.426c-1.971,2.748-4.959,1.502-4.764-0.46c-3.48,1.153-1.912-1.733-3.716-1.617
							C20.337,14.59,19.166,13.9,20.484,12.132z"/>
						<g>
							<path class="st0" d="M24.61,17.284c0.334-0.041,0.655-0.163,0.893-0.314c0.035-0.022,0.046-0.069,0.023-0.104
								c-0.022-0.035-0.069-0.046-0.104-0.023c-0.426,0.27-1.115,0.422-1.607,0.19c-0.76-0.359-0.83-1.137-0.887-1.763
								c-0.036-0.4-0.067-0.746-0.276-0.895c-0.034-0.024-0.081-0.016-0.105,0.017c-0.024,0.034-0.016,0.081,0.017,0.105
								c0.153,0.11,0.181,0.423,0.214,0.786c0.056,0.629,0.134,1.49,0.972,1.886C24.016,17.294,24.318,17.32,24.61,17.284z"/>
						</g>
					</g>
				</g>
				<g>
					<g>
						<g>
							<g>
								<path class="st0" d="M29.662,14.135c0,0,0.716-4.452-3.049-5.581c-3.765-1.129-5.956,2.32-5.956,2.32L29.662,14.135z"/>
								<g class="st3">
									<path class="st0" d="M26.613,8.554c3.765,1.129,3.049,5.581,3.049,5.581l-6.969-2.523
										C24.439,11.578,26.383,10.32,26.613,8.554z"/>
								</g>
							</g>
							<g>
								<path class="st0" d="M20.177,13.045c0.379,0.146,8.256,3.177,8.635,3.323c0.085,0.033,0.175,0.04,0.26,0.023
									c0.086-0.017,0.167-0.056,0.233-0.118c0.65-0.6,0.919-1.342,0.804-2.227c-0.011-0.087-0.046-0.168-0.098-0.234
									c-0.052-0.067-0.122-0.12-0.203-0.151c-0.379-0.146-8.261-3.179-8.64-3.325c-0.087-0.033-0.179-0.04-0.266-0.022
									c-0.087,0.018-0.17,0.06-0.236,0.125c-0.602,0.59-0.867,1.324-0.793,2.202c0.008,0.091,0.041,0.176,0.093,0.246
									C20.02,12.957,20.092,13.012,20.177,13.045z"/>
								<path class="st0" d="M19.874,12.641c-0.074-0.877,0.19-1.611,0.793-2.202c0.066-0.065,0.149-0.107,0.236-0.125
									c0.087-0.018,0.18-0.011,0.266,0.022c0.387,0.149,8.271,3.183,8.64,3.325c0.082,0.031,0.151,0.084,0.203,0.151
									c0.049,0.063,0.082,0.138,0.095,0.22c-0.254-0.098-7.93-3.052-8.293-3.191c-0.087-0.033-0.179-0.04-0.266-0.022
									c-0.087,0.018-0.17,0.06-0.236,0.125c-0.602,0.59-0.867,1.324-0.793,2.202c0.001,0.011,0.002,0.022,0.004,0.033
									l-0.347-0.133c-0.085-0.033-0.157-0.088-0.21-0.159C19.915,12.816,19.882,12.732,19.874,12.641z"/>
							</g>
						</g>
					</g>
					<g>
						<path class="st0" d="M25.061,7.463c0.13,1.061,1.096,1.815,2.157,1.685c1.061-0.13,1.815-1.096,1.685-2.157
							c-0.13-1.061-1.096-1.815-2.157-1.685C25.685,5.437,24.931,6.402,25.061,7.463z"/>
						<path class="st0" d="M25.421,6.289c-0.355,0.615-0.267,1.33,0.196,1.597c0.463,0.267,1.126-0.015,1.48-0.63
							c0.355-0.615,0.267-1.33-0.196-1.597C26.438,5.393,25.776,5.675,25.421,6.289z"/>
					</g>
				</g>
				<g>
					<path class="st0" d="M25.177,14.848l4.477-3.283c0.184,0.399,0.252,0.814,0.154,1.252l-5.525,4
						c-1.094,1.518-2.539,1.628-2.539,1.628s-0.598-0.872-0.722-1.499C21.022,16.946,23.419,16.101,25.177,14.848z"/>
					<g>
						<path class="st0" d="M24.911,15.238c-0.64,1.828-1.903,2.608-2.75,2.918l0.255-1.559C23.179,16.268,24.11,15.81,24.911,15.238
							z"/>
						<path class="st0" d="M21.069,17.13c0.248-0.093,0.745-0.273,1.346-0.533l-0.255,1.559c-0.197,0.072-0.371,0.119-0.51,0.147
							C21.5,18.065,21.204,17.568,21.069,17.13z"/>
					</g>
				</g>
			</g>
			<g>
				<g>
					<path class="st0" d="M75.714,3.803l-3.924,2.031c-0.123,0.064-0.172,0.216-0.108,0.339c0.064,0.123,0.216,0.172,0.339,0.108
						c0.008-0.004,0.017-0.009,0.025-0.015L75.714,3.803z"/>
					<path class="st0" d="M72.458,5.73c0.583,0.985,0.814,1.927,0.515,2.104c-0.299,0.177-1.014-0.479-1.597-1.464
						c-0.583-0.985-0.814-1.927-0.515-2.104C71.16,4.089,71.875,4.744,72.458,5.73z"/>
					<g>
						<path class="st0" d="M45.55,21.921c0.033-0.004,0.066-0.015,0.097-0.033L72.045,6.266c0.119-0.071,0.159-0.225,0.088-0.344
							c-0.071-0.119-0.225-0.159-0.344-0.088L45.392,21.456c-0.119,0.071-0.159,0.225-0.088,0.344
							C45.356,21.888,45.454,21.933,45.55,21.921z"/>
					</g>
				</g>
				<g>
					<g>
						<path id="XMLID_24_" class="st0" d="M46.258,29.45l-6.53,7.254c-0.592,0.61-0.668,1.555-0.18,2.251l9.498,12.814
							c-2.101,0.925-4.099,2.289-4.309,3.542l7.499-1.432c0.835-0.164,1.389-0.966,1.24-1.804
							c-0.972-5.488-3.121-9.943-6.476-12.904c-0.334-0.295-0.287-0.827,0.093-1.058c3.635-2.211,7.903-4.816,9.817-7.785
							L46.258,29.45z"/>
						<path class="st0" d="M45.117,38.096c3.709-2.459,7.518-5.151,8.978-7.999l2.814,0.232c-1.914,2.969-6.183,5.575-9.817,7.785
							c-0.38,0.231-0.427,0.764-0.093,1.058c3.355,2.961,5.504,7.416,6.476,12.903c0.128,0.725-0.269,1.423-0.919,1.704
							c-0.456-5.847-3.15-11.062-7.486-15.096c-0.085-0.079-0.124-0.186-0.12-0.29C44.954,38.279,45.011,38.166,45.117,38.096z"/>
					</g>
					<g>
						<g>
							<path class="st0" d="M49.993,42.622c0.076-0.093,0.187-0.133,0.295-0.125c0.107,0.009,0.21,0.067,0.271,0.171
								c1.653,2.811,2.671,6,3.258,9.196c-0.423-1.772-3.001-3.605-4.551-4.556c-0.015-0.371-0.108-2.683-0.123-3.055
								c-0.007-0.184,0.019-0.366,0.077-0.537C49.328,43.395,49.44,43.294,49.993,42.622z"/>
							<g>
								<path class="st0" d="M48.49,51.643c-0.192-0.271-4.183-5.911-4.375-6.182c-0.013-0.018-0.013-0.04-0.005-0.058
									c0.009-0.018,0.026-0.031,0.049-0.032c0.584-0.024,1.03-0.043,1.614-0.067c0.111-0.005,0.221,0.006,0.327,0.031
									c0.107,0.025,0.21,0.065,0.307,0.118c2.71,1.502,8.946,5.341,7.181,7.904c-0.244,0.354-0.621,0.617-1.075,0.706
									c-0.345,0.066-7.502,1.432-7.846,1.498c-0.081,0.015-0.157-0.012-0.21-0.063c-0.053-0.051-0.082-0.127-0.069-0.208
									C44.663,53.605,46.934,52.328,48.49,51.643z"/>
							</g>
						</g>
					</g>
				</g>
				<g>
					<path class="st0" d="M60.876,24.271c0,0-1.837,4.847-3.222,5.967c-1.386,1.12-12.722-0.317-12.722-0.317L60.876,24.271z"/>
					<path id="XMLID_20_" class="st0" d="M44.483,29.666c2.871-0.493,8.064-11.517,5.592-14.744
						c4.237-1.503,13.305,3.826,10.802,9.349C59.253,27.852,45.345,31.083,44.483,29.666L44.483,29.666z"/>
					<g>
						<g>
							<path class="st0" d="M55.261,16.177c-1.595-0.634-3.312-0.703-3.576,0.993c-1.07,6.869-4.754,11.895-7.171,12.538
								c-0.012-0.014-0.023-0.028-0.032-0.043c2.871-0.493,8.064-11.517,5.592-14.744c3.512-1.246,10.343,2.202,11.153,6.564
								C60.183,19.177,57.717,17.153,55.261,16.177z"/>
						</g>
						<g>
							<path id="XMLID_17_" class="st0" d="M39.363,14.579c0.369-0.772,8.956-1.947,10.711,0.343
								c2.473,3.226-2.721,14.251-5.592,14.744c-2.227,0.382-6.966-2.934-6.966-2.934C39.596,25.101,41.088,16.083,39.363,14.579z"
								/>
							<path class="st0" d="M41.05,18.047c-0.499,4.601-3.031,9.022-3.031,9.022c-0.316-0.206-0.502-0.336-0.502-0.336
								c2.079-1.631,3.57-10.649,1.846-12.153c0.369-0.771,8.937-1.944,10.705,0.335c-1.293-0.659-3.38-0.703-5.224-0.566
								c-1.143,0.085-2.152,0.636-2.846,1.465C41.483,16.43,41.142,17.2,41.05,18.047z"/>
						</g>
						<g>
							<path id="XMLID_16_" class="st0" d="M32.419,14.976c1.63-1.132,6.156-1.084,6.944-0.397
								c1.724,1.504,0.233,10.522-1.846,12.153c-2.079,1.631-8.171-1.773-8.328-3.055C29.709,20.569,30.714,17.642,32.419,14.976z"
								/>
							<path class="st0" d="M32.419,14.976c0.798-0.554,2.196-0.774,3.165-0.848c-1.828,0.319-3.13,1.362-4.59,6.425
								c-1.054,3.654,2.391,6.338,5.973,6.469c-2.436,0.825-7.633-2.163-7.778-3.346C29.706,20.591,30.704,17.657,32.419,14.976z"/>
						</g>
					</g>
					<g>
						<path id="XMLID_11_" class="st0" d="M32.419,14.976c0,0-1.662-0.728-2.396-0.442c-0.758,0.296-3.746,5.84-3.597,7.05
							c0.119,0.969,1.62,2.066,2.763,2.093C29.878,20.666,30.904,17.751,32.419,14.976z"/>
						<path class="st0" d="M30.024,14.535c0.118-0.046,0.26-0.066,0.416-0.067c-0.385,0.014-3.735,4.656-3.346,7.069
							c0.166,1.028,1.189,1.563,2.152,1.896c-0.019,0.081-0.038,0.163-0.057,0.244c-1.142-0.026-2.644-1.124-2.763-2.093
							C26.278,20.375,29.266,14.831,30.024,14.535z"/>
					</g>
				</g>
				<g>
					<path class="st0" d="M73.379,0l-3.766,2.311c-0.118,0.073-0.155,0.227-0.083,0.346c0.073,0.118,0.227,0.156,0.346,0.083
						c0.008-0.005,0.016-0.011,0.024-0.016L73.379,0z"/>
					<path class="st0" d="M70.273,2.158c0.653,0.94,0.952,1.863,0.667,2.061c-0.285,0.198-1.046-0.404-1.699-1.344
						c-0.653-0.94-0.952-1.863-0.667-2.061C68.859,0.616,69.62,1.218,70.273,2.158z"/>
					<g>
						<path class="st0" d="M27.989,31.804c0.039-0.005,0.078-0.019,0.112-0.043L69.9,2.723c0.114-0.079,0.142-0.236,0.063-0.349
							c-0.079-0.114-0.236-0.142-0.349-0.063L27.815,31.348c-0.114,0.079-0.142,0.236-0.063,0.349
							C27.807,31.777,27.899,31.815,27.989,31.804z"/>
					</g>
				</g>
				<g>
					<g>
						<path id="XMLID_1_" class="st0" d="M31.727,30.031c-0.424-0.463-2.46-1.319-3.117-0.403c-0.322-0.091-1.364-0.57-1.754-0.145
							c-0.39,0.425-0.339,2.171,0.51,2.951c0.849,0.78,3.679,1.551,4.328,0.773C32.343,32.428,32.15,30.494,31.727,30.031z"/>
						<g>
							<path class="st0" d="M29.245,29.992c0,0-1.878-0.677-2.268-0.025c-0.301,0.503-0.206,1.376,0.173,2.226
								c-0.639-0.852-0.648-2.325-0.294-2.711c0.39-0.425,1.431,0.054,1.754,0.145c0.633-0.882,2.544-0.121,3.063,0.35
								C30.66,29.481,29.09,29.343,29.245,29.992z"/>
						</g>
					</g>
					<g>
						<g>
							<path class="st0" d="M41.971,22.669c4.495,0.856,5.166,7.122,2.278,7.477c-0.155-1.263-2.815-2.547-6.953-2.835
								c-0.182-0.021-0.365-0.05-0.547-0.086C39.403,26.034,41.118,24.506,41.971,22.669z"/>
							<path class="st0" d="M36.902,19.655c2.116,0.231,4.149,1.238,4.908,2.66c0.062,0.117,0.115,0.234,0.161,0.353
								c-0.853,1.837-2.568,3.365-5.221,4.556c-0.96-0.192-1.906-0.607-2.718-1.338C35.726,23.781,36.639,21.705,36.902,19.655z"/>
							<path class="st0" d="M30.556,20.254c1.193-2.44,5.193-1.983,6.346-0.599c-0.262,2.05-1.175,4.126-2.87,6.232
								C31.282,25.635,29.312,22.798,30.556,20.254z"/>
						</g>
						<g>
							<path class="st0" d="M35.32,27.966c0.368-0.481,1.194-0.635,1.975-0.656c4.139,0.288,6.798,1.572,6.953,2.835
								c-0.001,1.052-3.292,2.502-5.522,2.604L35.32,27.966z"/>
							<path class="st0" d="M31.009,29.558c0.525-0.922,3.378-1.768,4.311-1.592c3.486,1.606,3.401,4.784,3.407,4.784
								c-1.277,0.676-5.706,1.318-6.935,0.707c-0.815-0.405-0.964-1.142-1.068-1.895C30.627,30.864,30.629,30.227,31.009,29.558z"/>
						</g>
					</g>
				</g>
			</g>
		</g>
		<g>
			<g>
				<path class="st0" d="M53.473,54.003l0.799-1.093l0.799-1.093c0.074-0.102,0.157-0.197,0.246-0.285
					c0.089-0.088,0.186-0.169,0.289-0.242l0.037-0.026l0.037-0.026c0.065-0.046,0.139-0.034,0.189,0.007
					c0.05,0.041,0.075,0.112,0.042,0.184l-0.894,1.954l-0.894,1.954l-0.306,0.038l-0.306,0.038l-0.019-0.705L53.473,54.003z"/>
				<path class="st0" d="M47.273,56.178l6.239-0.766l0.352-1.041c0.052-0.153,0.003-0.306-0.099-0.405
					c-0.086-0.083-0.21-0.128-0.344-0.101l-6.281,1.225L47.273,56.178z"/>
				<path class="st0" d="M45.994,52.751l2.186,3.317l-7.302,0.897l4.282-4.297c0.121-0.121,0.282-0.172,0.437-0.156
					C45.751,52.526,45.899,52.608,45.994,52.751z"/>
			</g>
			<g>
				<path class="st0" d="M9.445,61.177l63.164-7.756c0.193-0.024,0.33-0.199,0.306-0.392c-0.024-0.193-0.199-0.33-0.392-0.306
					L9.36,60.479c-4.883,0.6-6.792-0.084-8.792-1.647c-0.153-0.12-0.374-0.092-0.494,0.061c-0.119,0.153-0.092,0.374,0.061,0.493
					C2.287,61.068,4.318,61.807,9.445,61.177z"/>
			</g>
		</g>
	</g>
	<g>
		<path class="st4" d="M79.198,47.618c-0.025-3.986,1.269-6.043,2.924-6.872c2.802-1.404,1.985-4.322,4.581-6.054
			c2.985-1.992,6.557-0.418,7.044,2.767c0.579,3.786-2.906,4.899-3.485,7.35c2.121,0.341,2.653,1.457,2.452,2.602
			c-0.393,2.232-5.363,4.536-9.709,4.971c-6.273,0.628-9.432,0.944-9.432,0.944S79.227,52.393,79.198,47.618z"/>
		<path class="st4" d="M88.936,51.787c0,0,2.315-0.232,4.291-0.429c1.976-0.198,3.431-2.508,2.47-2.947
			c-0.499-0.228-1.138,0.699-1.831,1.015c-0.434,0.198-1.102-0.073-1.488,0.294C91.598,50.46,90.582,51.406,88.936,51.787z"/>
	</g>
</g>
</svg>
