<?xml version="1.0" encoding="utf-8"?>
<!-- Generator: Adobe Illustrator 26.5.2, SVG Export Plug-In . SVG Version: 6.00 Build 0)  -->
<svg version="1.1" id="レイヤー_1" xmlns="http://www.w3.org/2000/svg" xmlns:xlink="http://www.w3.org/1999/xlink" x="0px"
	 y="0px" viewBox="0 0 48 50" style="enable-background:new 0 0 48 50;" xml:space="preserve">
<style type="text/css">
	.st0{fill-rule:evenodd;clip-rule:evenodd;fill:#232128;}
	.st1{fill-rule:evenodd;clip-rule:evenodd;fill:#98C3F0;}
</style>
<g>
	<path class="st0" d="M16.351,49.496c0.802-0.221,1.149-0.212,1.434-0.807l-7.74-8.473c-0.39-0.397-0.452-0.597-0.802-1.018
		c-0.283-0.34-1.583-1.689-1.812-1.771c-0.553-0.198-6.009-0.069-7.061-0.066C-1.387,45.25,9.192,51.469,16.351,49.496"/>
	<path class="st1" d="M18.514,37.773C23.05,42.881,27.5,49.972,35.095,50c6.091,0.022,11.375-4.417,12.415-10.366
		c0.72-4.115-0.364-6.134-1.838-9.199c-0.388-0.545-0.589-0.802-1.154-1.374c-0.536-0.543-0.683-0.912-1.176-1.442
		c-0.599-0.644-0.705-0.624-1.255-1.358c-0.442-0.591-0.891-0.825-1.245-1.37c-0.498-0.382-0.718-0.911-1.209-1.403
		c-1.837-1.846-3.464-4.021-5.226-5.833c-0.389-0.4-0.545-0.488-0.891-0.91c-0.281-0.344-0.432-0.581-0.725-0.891
		c-3.909-4.135,0.203-8.001,3.495-7.111c2.229,0.603,2.321,1.76,3.109,3.917l8.302,0.002c0.626-2.633-1.255-5.299-1.906-7.149
		c-1.366-1.092-4.141-6.081-11.704-5.433c-3.424,0.293-6.502,2.015-8.454,4.421l-1.781,2.516c-1.221,4.133-1.564,4.479-0.739,9.192
		c0.62,1.35,0.859,2.253,1.749,3.553l8.522,9.78c2.665,3.044,8.599,7.737,4.219,11.043c-0.994,0.751-2.71,1.124-4.093,0.496
		c-1.353-0.614-4.13-4.046-5.168-5.298l-6.218-6.844c-0.531-0.68-0.506-0.738-1.216-1.395c-3.024-3.571-6.686-7.103-9.495-10.621
		l-1.692-1.918c-2.261-3.156,0.64-8.233,5.798-5.55c1.043-5.183,2.936-7.092,3.045-8.152C15.11,0.09,12.9-0.586,8.952,0.677
		C0.048,3.526-2.85,15.213,4.849,22.49l10.953,12.161c0.579,0.713,0.624,0.778,1.33,1.485C17.697,36.702,17.893,37.2,18.514,37.773"
		/>
</g>
</svg>
