<?xml version="1.0" encoding="utf-8"?>
<!-- Generator: Adobe Illustrator 26.5.2, SVG Export Plug-In . SVG Version: 6.00 Build 0)  -->
<svg version="1.1" id="レイヤー_1" xmlns="http://www.w3.org/2000/svg" xmlns:xlink="http://www.w3.org/1999/xlink" x="0px"
	 y="0px" viewBox="0 0 400.684 68.282" style="enable-background:new 0 0 400.684 68.282;" xml:space="preserve">
<style type="text/css">
	.st0{fill-rule:evenodd;clip-rule:evenodd;fill:#252229;}
</style>
<path id="logo-skyweb.svg" class="st0" d="M50.34,47.762c0-22.317-32.954-17.094-32.954-28.68c0-4.178,2.944-6.173,6.838-6.078
	c4.368,0.095,7.407,2.659,7.692,6.933h17.569C48.82,7.211,39.039-0.006,24.508-0.006c-13.96,0-24.311,7.027-24.311,19.658
	c-0.19,23.647,33.143,17,33.143,29.345c0,3.894-3.039,6.268-7.787,6.268c-4.558,0-7.787-2.469-8.262-7.6H0.007
	c0.475,13.486,11.681,20.608,26.021,20.608C41.603,68.275,50.34,58.969,50.34,47.762z M96.608,67.611h19.848l-26.781-34
	l25.832-32.667H96.418L74.194,30.193V0.944h-16.24v66.668h16.24v-29.44L96.608,67.611z M139.65,45.578v22.033h16.244V45.578
	l23.073-44.634h-18.234l-12.821,27.92l-12.918-27.92h-18.421L139.65,45.578z M214.322,67.611h19.658l11.014-43.875l10.637,43.875
	h19.663L292.67,0.944h-17.476l-9.687,48.529l-11.4-48.529h-17.848l-11.871,48.529l-9.594-48.529h-17.377L214.322,67.611z
	 M339.332,0.944h-40.838v66.668h40.836V54.6h-24.6V39.975h21.747V27.444h-21.741v-13.49h24.6V0.944H339.332z M384.269,47.288
	c0,4.749-3.134,7.218-8.547,7.218h-11.966v-14.72h11.776c5.413-0.001,8.737,2.758,8.737,7.501V47.288z M382.654,20.982
	c0,4.559-2.944,6.933-8.262,6.933h-10.636V13.954h10.638c5.316,0,8.26,2.469,8.26,7.027V20.982z M400.694,49.473
	c0.113-7.726-5.258-14.451-12.817-16.05c6.864-1.788,11.563-8.107,11.3-15.195c0-10.541-8.07-17.284-21.648-17.284h-30.01v66.668
	h31.055C392.624,67.611,400.694,60.488,400.694,49.473L400.694,49.473z"/>
</svg>
