<?xml version="1.0" encoding="utf-8"?>
<!-- Generator: Adobe Illustrator 26.5.2, SVG Export Plug-In . SVG Version: 6.00 Build 0)  -->
<svg version="1.1" id="svg702" xmlns="http://www.w3.org/2000/svg" xmlns:xlink="http://www.w3.org/1999/xlink" x="0px" y="0px"
	 viewBox="0 0 100 22" style="enable-background:new 0 0 100 22;" xml:space="preserve">
<style type="text/css">
	.st0{fill:#203A8F;}
	.st1{fill:#E30413;}
</style>
<g>
	<g id="g318" transform="matrix(0.69251223,0,0,-0.69251223,48.533686,119.99186)">
		<path id="path320" class="st0" d="M-47.536,141.832l-10.215,17.641l-10.217-17.641h4.733l5.484,10.493l5.483-10.493H-47.536z"/>
	</g>
	<g id="g322" transform="matrix(0.69251223,0,0,-0.69251223,41.589588,105.81767)">
		<path id="path324" class="st1" d="M-47.724,142.216l-5.939,10.256h11.88L-47.724,142.216z"/>
	</g>
	<path id="path326" class="st0" d="M17.079,8.04H0v0.794h17.079V8.04z"/>
	<g id="g330" transform="matrix(0.69251223,0,0,-0.69251223,7.687791,278.46283)">
		<g id="g336" transform="translate(144.7712,253.2919)">
			<path id="path338" class="st0" d="M-45.925,142.291h-10.928l0.004-18.666h10.924c4.799,0,10.887,2.81,10.887,9.433
				C-35.038,139.685-40.535,142.291-45.925,142.291 M-46.134,127.872h-5.513v10.169h5.513c3.215,0,5.639-1.849,5.639-5.084
				C-40.495,130.394-42.611,127.872-46.134,127.872"/>
		</g>
	</g>
	<g id="g340" transform="matrix(0.69251223,0,0,-0.69251223,88.787971,103.0551)">
		<path id="path342" class="st0" d="M-46.444,142.291v-7.066h-11.114v7.066h-5.205v-18.666h5.205v7.356h11.114v-7.356h5.203v18.666
			H-46.444z"/>
	</g>
	<path id="path344" class="st0" d="M66.204,4.517H62.6v12.926h3.604V4.517z"/>
	<g id="g348">
		<g id="g354" transform="translate(92.4939,246.2617)">
			<path id="path356" class="st0" d="M-53.236-236.785l-6.264,0.005c-0.738,0-1.064-0.502-1.064-1.017
				c0-0.505,0.351-1.006,1.034-1.006h10.063v-2.942h-10.379c-3.124,0-4.525,2.088-4.525,4.023c0,2.19,1.672,3.885,4.6,3.885h6.137
				c0.806,0,1.085,0.564,1.085,1.035c0,0.471-0.279,1.043-1.074,1.043h-10.028v2.943h10.557c3.044,0,4.348-2.324,4.348-4.045
				C-48.748-234.815-50.185-236.785-53.236-236.785"/>
		</g>
	</g>
	<path id="path358" class="st0" d="M26.398,4.517h-3.604v12.926h3.604V4.517z"/>
	<g id="g360" transform="matrix(0.69251223,0,0,-0.69251223,127.66941,115.74275)">
		<path id="path362" class="st0" d="M-45.39,141.947h5.435l-8.689,18.665h-7.699l-8.691-18.665h5.435l1.744,3.746h10.723
			L-45.39,141.947z M-55.858,149.981l3.362,7.227l3.365-7.227H-55.858z"/>
	</g>
</g>
</svg>
